<svg id="Layer_1" data-name="Layer 1" xmlns="http://www.w3.org/2000/svg" viewBox="0 0 512 512"><title>footprint-glyph</title><path d="M120,202.1S68.77,49.39,157.67,4.42c0,0,50.22-20.91,75.32,28.25,0,0,26.15,49.15-14.66,157.91Z" fill="#5b5b5f"/><path d="M129.43,239.75l89.95-9.41s36.62,86.8-18.82,108.77C200.56,339.11,128.38,352.72,129.43,239.75Z" fill="#5b5b5f"/><path d="M371.93,389.39s78.55-140.61-.54-201.22c0,0-45.44-29.83-79.19,13.85,0,0-34.78,43.48-14.78,157.92Z" fill="#5b5b5f"/><path d="M355.7,424.66,269,398.81s-52,78.56-1.57,110.39C267.47,509.2,335.9,535.87,355.7,424.66Z" fill="#5b5b5f"/></svg>