<svg xmlns="http://www.w3.org/2000/svg" width="48" height="48" fill="none" viewBox="0 0 48 48" id="spotify"><rect width="48" height="48" fill="#1ED760" rx="24"></rect><path fill="#fff" d="M35.0311 34.6105C34.6014 35.3267 33.6847 35.5272 32.9685 35.0975C27.3252 31.66 20.2496 30.8865 11.8849 32.7772C11.0828 32.949 10.2807 32.462 10.1088 31.66C9.93693 30.8579 10.4239 30.0558 11.226 29.8839C20.3642 27.7927 28.2133 28.6807 34.5154 32.548C35.2316 32.9777 35.4608 33.8944 35.0311 34.6105ZM37.953 28.0792C37.4087 28.9672 36.2629 29.225 35.3748 28.7094C28.9294 24.7276 19.1037 23.5817 11.4838 25.902C10.4812 26.1885 9.44994 25.6442 9.16348 24.6703C8.87701 23.6676 9.42129 22.6364 10.4239 22.3499C19.1324 19.7145 29.9607 20.9749 37.3801 25.5296C38.2108 26.0453 38.4973 27.1911 37.953 28.0792ZM38.2108 21.2614C30.4763 16.6779 17.7287 16.2483 10.338 18.4827C9.16348 18.8551 7.90304 18.1962 7.53064 16.9931C7.15824 15.8186 7.84575 14.5581 9.02024 14.1857C17.4995 11.6076 31.5935 12.1232 40.4739 17.3941C41.5338 18.0243 41.8775 19.3993 41.2473 20.4593C40.6457 21.5478 39.2707 21.9202 38.2108 21.2614Z"></path></svg>